# xmcd
#
# Track frame offsets: 
#        150
#        21635
#        37042
#        66022
#        82497
#        98477
#        123347
#        144477
#        155692
#        189025
#
# Disc length: 2810 seconds
#
# Revision: 0
# Processed by: cddbd v1.4PL0 Copyright (c) Steve Scherf et al.
# Submitted via: ExactAudioCopy v0.90b3
#
DISCID=870af80a
DTITLE=Vera Cruise - Come Along And Fall Apart
DYEAR=2002
DGENRE=
TTITLE0=The Last Time Partick Thistle Won
TTITLE1=Wasted Sounds
TTITLE2=Come Alone And Fall Apart
TTITLE3=Rejecting Mobile Phones
TTITLE4=Keep All The Lies
TTITLE5=The Famous Signs Of Personal Collapse
TTITLE6=Mt. Assiniboine In The Fall
TTITLE7=Seven/Eight
TTITLE8=Measuring Down
TTITLE9=Come And Goes
EXTD=
EXTT0=
EXTT1=
EXTT2=
EXTT3=
EXTT4=
EXTT5=
EXTT6=
EXTT7=
EXTT8=
EXTT9=
PLAYORDER=
